<svg width="83" height="30" viewBox="0 0 83 30" fill="none" xmlns="http://www.w3.org/2000/svg">
<path d="M42.0117 9.14062L43.1074 9.12305C45.0176 9.12305 46.3594 9.43945 47.1328 10.0723C47.2969 10.1934 47.4766 10.3965 47.6719 10.6816C48.2383 11.5059 48.5215 12.416 48.5215 13.4121C48.5215 15.1895 47.9102 16.5039 46.6875 17.3555C45.957 17.8672 45.1172 18.127 44.168 18.1348L44.1445 18.1582H43.998L42.4395 18.1406C41.7324 18.1406 40.8477 18.1582 39.7852 18.1934C39.7109 18.0527 39.6738 17.8867 39.6738 17.6953L39.6797 17.4844V16.5703L39.6914 15.2695V13.125C39.6836 12.6328 39.6797 12.2656 39.6797 12.0234V11.0625L39.6855 10.9277V9.25195C39.6855 9.2207 39.8984 9.19531 40.3242 9.17578C40.75 9.15234 41.0898 9.14062 41.3438 9.14062H42.0117ZM44.4961 11.168C44.2734 11.0078 44.0273 10.918 43.7578 10.8984C43.6641 10.8945 43.5352 10.8906 43.3711 10.8867C43.2109 10.8828 43.0938 10.8789 43.0195 10.875C42.9492 10.9805 42.9023 11.0586 42.8789 11.1094L42.7734 11.3262V11.6543C42.7734 12.3301 42.7891 13.2461 42.8203 14.4023L42.8555 16.0957C42.8789 16.2168 42.957 16.2891 43.0898 16.3125C43.4922 16.3047 43.8027 16.2773 44.0215 16.2305C44.791 15.957 45.1758 15.0215 45.1758 13.4238C45.1758 12.2402 44.9492 11.4883 44.4961 11.168ZM52.6406 8.75391L52.6465 10.3594H49.0371C49.0371 9.98438 49.0332 9.7168 49.0254 9.55664L49.0195 8.76562L52.6406 8.75391ZM48.9609 8.76562L49.0195 8.70703V8.76562H48.9609ZM52.6641 16.1426L52.6699 16.1953L52.6758 17.0742C52.6758 17.2344 52.668 17.4258 52.6523 17.6484C52.6367 17.8711 52.623 17.9863 52.6113 17.9941L52.5059 18.0059H50.373L50.127 18.0293C49.5176 18.0293 49.1465 18.0215 49.0137 18.0059V17.9648L49.0078 17.8535V17.5898C49.0078 16.8203 49.0195 16.1816 49.043 15.6738L49.1074 11.1621V10.9863L49.5645 10.9805L49.6641 10.9863H49.834L49.9805 10.9922L50.0566 10.9863H50.4785L50.5664 10.9805L52.5645 11.0039C52.5801 11 52.5918 10.998 52.5996 10.998C52.6074 10.998 52.6113 11.0098 52.6113 11.0332L52.6172 11.5898C52.6211 11.9609 52.6289 12.459 52.6406 13.084C52.6523 13.7051 52.6582 14.1445 52.6582 14.4023L52.6523 15.1348V15.4453L52.6699 15.7559V15.9375C52.6699 15.9414 52.668 15.9492 52.6641 15.9609V16.1426ZM58.5938 17.2617L58.6172 16.9219C58.6172 16.8633 58.5996 16.7051 58.5645 16.4473C58.5137 16.5371 58.4434 16.627 58.3535 16.7168C58.2676 16.8066 58.1953 16.8594 58.1367 16.875C57.7109 17.0625 57.1934 17.1562 56.584 17.1562C55.9785 17.1562 55.4336 17.0332 54.9492 16.7871C54.4688 16.5371 54.082 16.1777 53.7891 15.709C53.5 15.2402 53.3555 14.7402 53.3555 14.209C53.3555 13.6777 53.4336 13.207 53.5898 12.7969C53.75 12.3828 53.9707 12.0234 54.252 11.7188C54.5371 11.4141 54.8887 11.1738 55.3066 10.998C55.7246 10.8223 56.1816 10.7344 56.6777 10.7344C57.4707 10.7344 58.1328 10.9551 58.6641 11.3965C58.7617 11.502 58.8633 11.5898 58.9688 11.6602L59.0508 11.4023V10.9922H60.5684L62.0918 10.9863L62.0977 16.4531C62.0977 16.5195 62.0938 16.623 62.0859 16.7637V16.7871C62.082 16.8613 62.0801 16.9785 62.0801 17.1387V17.2031L62.0918 17.5137L62.0566 17.8418C62.0566 17.8613 62.0566 17.873 62.0566 17.877C62.0605 17.8809 62.0449 17.9688 62.0098 18.1406C61.9746 18.3125 61.9316 18.4648 61.8809 18.5977C61.7207 19.0273 61.4023 19.418 60.9258 19.7695C60.4492 20.125 60.0352 20.3281 59.6836 20.3789C59.6445 20.418 59.5684 20.4473 59.4551 20.4668C59.3418 20.4902 59.2734 20.5059 59.25 20.5137V20.5078C58.8711 20.6328 58.5078 20.6953 58.1602 20.6953C57.8164 20.6953 57.6387 20.6914 57.627 20.6836H57.4512C57.416 20.6953 57.3223 20.7012 57.1699 20.7012C57.0215 20.7012 56.748 20.6562 56.3496 20.5664L56.1621 20.5254C55.877 20.4668 55.6172 20.3828 55.3828 20.2734C54.8281 20.0508 54.3926 19.7539 54.0762 19.3828C53.7598 19.0117 53.5449 18.498 53.4316 17.8418L53.4199 17.7891C53.5449 17.7969 53.7285 17.8008 53.9707 17.8008L54.9316 17.7832H57.5273L57.5215 17.8066C57.5215 18.0098 57.5645 18.1934 57.6504 18.3574C57.7402 18.5254 57.8574 18.6094 58.002 18.6094C58.2559 18.6094 58.4277 18.4648 58.5176 18.1758C58.5879 17.9492 58.623 17.709 58.623 17.4551V17.3379C58.6113 17.3379 58.6055 17.3457 58.6055 17.3613C58.5977 17.3496 58.5938 17.3164 58.5938 17.2617ZM58.7578 14.0742L58.7637 14.0039C58.7285 12.8711 58.4785 12.3047 58.0137 12.3047C57.8809 12.3047 57.7637 12.3535 57.6621 12.4512C57.498 12.6074 57.3848 12.8418 57.3223 13.1543C57.2637 13.4668 57.2344 13.7383 57.2344 13.9688L57.252 14.1738V14.2266L57.2461 14.2676V14.3027C57.2461 14.623 57.3223 14.9355 57.4746 15.2402C57.627 15.541 57.8203 15.6914 58.0547 15.6914C58.3125 15.6914 58.5273 15.3711 58.6992 14.7305H58.6699C58.7285 14.5781 58.7578 14.4219 58.7578 14.2617V14.0742ZM66.4922 8.75391L66.498 10.3594H62.8887C62.8887 9.98438 62.8848 9.7168 62.877 9.55664L62.8711 8.76562L66.4922 8.75391ZM62.8125 8.76562L62.8711 8.70703V8.76562H62.8125ZM66.5156 16.1426L66.5215 16.1953L66.5273 17.0742C66.5273 17.2344 66.5195 17.4258 66.5039 17.6484C66.4883 17.8711 66.4746 17.9863 66.4629 17.9941L66.3574 18.0059H64.2246L63.9785 18.0293C63.3691 18.0293 62.998 18.0215 62.8652 18.0059V17.9648L62.8594 17.8535V17.5898C62.8594 16.8203 62.8711 16.1816 62.8945 15.6738L62.959 11.1621V10.9863L63.416 10.9805L63.5156 10.9863H63.6855L63.832 10.9922L63.9082 10.9863H64.3301L64.418 10.9805L66.416 11.0039C66.4316 11 66.4434 10.998 66.4512 10.998C66.459 10.998 66.4629 11.0098 66.4629 11.0332L66.4688 11.5898C66.4727 11.9609 66.4805 12.459 66.4922 13.084C66.5039 13.7051 66.5098 14.1445 66.5098 14.4023L66.5039 15.1348V15.4453L66.5215 15.7559V15.9375C66.5215 15.9414 66.5195 15.9492 66.5156 15.9609V16.1426ZM71.6074 15.082L71.6016 15.1699C71.6016 15.3066 71.6055 15.4082 71.6133 15.4746C71.625 15.5371 71.666 15.6133 71.7363 15.7031C71.8066 15.7891 72.0352 15.832 72.4219 15.832L72.5801 15.8379C72.6387 15.8379 72.6914 15.832 72.7383 15.8203L72.7441 18.0059H69.5391L69.3398 18.0176H69.2754C69.1309 18.0176 68.9727 17.9707 68.8008 17.877C68.6289 17.7832 68.5 17.7012 68.4141 17.6309C68.332 17.5566 68.2617 17.4629 68.2031 17.3496C68.0938 17.1387 68.0273 16.9316 68.0039 16.7285C67.9844 16.5215 67.9746 16.2656 67.9746 15.9609V12.7148H67.2832L67.2773 11.8945V11.0566H67.9512V9.11719H69.7617L71.5723 9.11133L71.5781 11.0449H72.5566L72.5625 11.8828V12.7148H71.6074V15.082Z" fill="black"/>
<path d="M81.9551 14.4551C81.9473 14.4941 81.9434 14.5176 81.9434 14.5254V14.5723C81.9316 15.2168 81.7832 15.7969 81.498 16.3125H81.5039C81.1055 16.9219 80.5488 17.3906 79.834 17.7188C79.123 18.0469 78.4219 18.2109 77.7305 18.2109C77.0391 18.2109 76.4648 18.1426 76.0078 18.0059C75.5547 17.873 75.1348 17.6777 74.748 17.4199C74.3613 17.1621 74.0742 16.9141 73.8867 16.6758C73.4414 16.1133 73.2188 15.3184 73.2188 14.291C73.2188 14.2559 73.2246 14.2266 73.2363 14.2031V14.1094C73.2246 14.0938 73.2188 14.0781 73.2188 14.0625L73.2305 13.998H73.2246C73.2988 13.3145 73.4434 12.8652 73.6582 12.6504C73.6582 12.6074 73.6855 12.5586 73.7402 12.5039V12.5098L73.8281 12.3691C74.2891 11.7793 74.8164 11.375 75.4102 11.1562L75.6152 11.0801C75.873 10.9551 76.2344 10.8613 76.6992 10.7988L76.8867 10.7812C76.9141 10.7773 76.9688 10.7734 77.0508 10.7695C77.1367 10.7656 77.1973 10.7578 77.2324 10.7461L77.4844 10.752C77.4961 10.748 77.5098 10.7461 77.5254 10.7461C77.541 10.7461 77.5586 10.748 77.5781 10.752L77.5723 10.7461C77.5957 10.7578 77.6309 10.7637 77.6777 10.7637C77.6934 10.748 77.7207 10.7402 77.7598 10.7402C78.6074 10.7402 79.3281 10.9141 79.9219 11.2617L80.0391 11.3145C81.3164 11.9277 81.9551 12.9746 81.9551 14.4551ZM78.3105 14.4902C78.2949 13.7129 78.1836 13.1875 77.9766 12.9141C77.8906 12.8008 77.7852 12.7441 77.6602 12.7441C77.5391 12.7441 77.4316 12.8164 77.3379 12.9609C77.2441 13.1016 77.168 13.3242 77.1094 13.6289C77.0547 13.9336 77.0273 14.2051 77.0273 14.4434C77.0273 14.6777 77.0371 14.8809 77.0566 15.0527C77.0801 15.2207 77.1133 15.4004 77.1562 15.5918C77.1992 15.7793 77.2656 15.9375 77.3555 16.0664C77.4453 16.1914 77.5469 16.2539 77.6602 16.2539C78.0938 16.2539 78.3105 15.666 78.3105 14.4902Z" fill="#FD6366"/>
<path d="M16.156 1.03122C17.4528 -0.620815 20.0157 -0.220728 20.7693 1.75137L29.812 25.4166C30.5656 27.3886 28.9446 29.4537 26.8941 29.1336L2.28989 25.2928C0.239536 24.9727 -0.702413 22.5076 0.594387 20.8556L16.156 1.03122Z" fill="#FD6366"/>
<path d="M28.5927 25.9998C28.5927 27.0122 27.7884 27.833 26.7963 27.833C25.8042 27.833 25 27.0122 25 25.9998C25 24.9874 25.8042 24.1666 26.7963 24.1666C27.7884 24.1666 28.5927 24.9874 28.5927 25.9998Z" fill="white"/>
</svg>
