<svg width="206" height="35" viewBox="0 0 206 35" fill="none" xmlns="http://www.w3.org/2000/svg">
<path d="M50.225 25L54.425 14.41H56.555L60.71 25H58.22L55.04 16.21H55.895L52.67 25H50.225ZM52.61 23.08V21.16H58.385V23.08H52.61ZM65.9319 25.165C65.1819 25.165 64.5019 25 63.8919 24.67C63.2819 24.34 62.8019 23.885 62.4519 23.305C62.1019 22.725 61.9269 22.075 61.9269 21.355C61.9269 20.625 62.1019 19.975 62.4519 19.405C62.8119 18.825 63.2969 18.37 63.9069 18.04C64.5169 17.71 65.2019 17.545 65.9619 17.545C66.5319 17.545 67.0519 17.645 67.5219 17.845C68.0019 18.035 68.4269 18.325 68.7969 18.715L67.3269 20.185C67.1569 19.995 66.9569 19.855 66.7269 19.765C66.5069 19.675 66.2519 19.63 65.9619 19.63C65.6319 19.63 65.3369 19.705 65.0769 19.855C64.8269 19.995 64.6269 20.195 64.4769 20.455C64.3369 20.705 64.2669 21 64.2669 21.34C64.2669 21.68 64.3369 21.98 64.4769 22.24C64.6269 22.5 64.8319 22.705 65.0919 22.855C65.3519 23.005 65.6419 23.08 65.9619 23.08C66.2619 23.08 66.5269 23.03 66.7569 22.93C66.9969 22.82 67.2019 22.67 67.3719 22.48L68.8269 23.95C68.4469 24.35 68.0169 24.655 67.5369 24.865C67.0569 25.065 66.5219 25.165 65.9319 25.165ZM75.7133 25V20.845C75.7133 20.465 75.5933 20.16 75.3533 19.93C75.1233 19.69 74.8283 19.57 74.4683 19.57C74.2183 19.57 73.9983 19.625 73.8083 19.735C73.6183 19.835 73.4683 19.985 73.3583 20.185C73.2483 20.375 73.1933 20.595 73.1933 20.845L72.3083 20.41C72.3083 19.84 72.4283 19.34 72.6683 18.91C72.9083 18.48 73.2433 18.15 73.6733 17.92C74.1033 17.68 74.5983 17.56 75.1583 17.56C75.7283 17.56 76.2283 17.68 76.6583 17.92C77.0883 18.15 77.4183 18.475 77.6483 18.895C77.8883 19.305 78.0083 19.785 78.0083 20.335V25H75.7133ZM70.8983 25V14.11H73.1933V25H70.8983ZM80.5323 25V17.71H82.8273V25H80.5323ZM82.8273 20.995L81.8673 20.245C82.0573 19.395 82.3773 18.735 82.8273 18.265C83.2773 17.795 83.9023 17.56 84.7023 17.56C85.0523 17.56 85.3573 17.615 85.6173 17.725C85.8873 17.825 86.1223 17.985 86.3223 18.205L84.9573 19.93C84.8573 19.82 84.7323 19.735 84.5823 19.675C84.4323 19.615 84.2623 19.585 84.0723 19.585C83.6923 19.585 83.3873 19.705 83.1573 19.945C82.9373 20.175 82.8273 20.525 82.8273 20.995ZM90.8236 25.15C90.1536 25.15 89.5536 24.985 89.0236 24.655C88.5036 24.325 88.0886 23.875 87.7786 23.305C87.4786 22.735 87.3286 22.085 87.3286 21.355C87.3286 20.625 87.4786 19.975 87.7786 19.405C88.0886 18.835 88.5036 18.385 89.0236 18.055C89.5536 17.725 90.1536 17.56 90.8236 17.56C91.3136 17.56 91.7536 17.655 92.1436 17.845C92.5436 18.035 92.8686 18.3 93.1186 18.64C93.3686 18.97 93.5086 19.35 93.5386 19.78V22.93C93.5086 23.36 93.3686 23.745 93.1186 24.085C92.8786 24.415 92.5586 24.675 92.1586 24.865C91.7586 25.055 91.3136 25.15 90.8236 25.15ZM91.2886 23.08C91.7786 23.08 92.1736 22.92 92.4736 22.6C92.7736 22.27 92.9236 21.855 92.9236 21.355C92.9236 21.015 92.8536 20.715 92.7136 20.455C92.5836 20.195 92.3936 19.995 92.1436 19.855C91.9036 19.705 91.6236 19.63 91.3036 19.63C90.9836 19.63 90.6986 19.705 90.4486 19.855C90.2086 19.995 90.0136 20.195 89.8636 20.455C89.7236 20.715 89.6536 21.015 89.6536 21.355C89.6536 21.685 89.7236 21.98 89.8636 22.24C90.0036 22.5 90.1986 22.705 90.4486 22.855C90.6986 23.005 90.9786 23.08 91.2886 23.08ZM92.8336 25V23.035L93.1786 21.265L92.8336 19.495V17.71H95.0836V25H92.8336ZM98.6795 25V17.08C98.6795 16.49 98.8095 15.96 99.0695 15.49C99.3395 15.01 99.7145 14.635 100.194 14.365C100.674 14.085 101.244 13.945 101.904 13.945C102.404 13.945 102.839 14.03 103.209 14.2C103.589 14.36 103.919 14.585 104.199 14.875L102.759 16.315C102.659 16.215 102.544 16.14 102.414 16.09C102.294 16.03 102.149 16 101.979 16C101.669 16 101.424 16.09 101.244 16.27C101.064 16.45 100.974 16.695 100.974 17.005V25H98.6795ZM97.0745 19.66V17.71H103.074V19.66H97.0745ZM112.344 25.15C111.654 25.15 111.039 24.985 110.499 24.655C109.969 24.325 109.549 23.875 109.239 23.305C108.939 22.735 108.789 22.085 108.789 21.355C108.789 20.625 108.939 19.975 109.239 19.405C109.549 18.835 109.969 18.385 110.499 18.055C111.039 17.725 111.654 17.56 112.344 17.56C112.844 17.56 113.294 17.655 113.694 17.845C114.104 18.035 114.439 18.3 114.699 18.64C114.969 18.97 115.119 19.35 115.149 19.78V22.855C115.119 23.285 114.974 23.675 114.714 24.025C114.454 24.365 114.119 24.64 113.709 24.85C113.299 25.05 112.844 25.15 112.344 25.15ZM112.749 23.08C113.079 23.08 113.364 23.01 113.604 22.87C113.844 22.72 114.034 22.515 114.174 22.255C114.314 21.995 114.384 21.695 114.384 21.355C114.384 21.015 114.314 20.72 114.174 20.47C114.044 20.21 113.854 20.005 113.604 19.855C113.364 19.705 113.084 19.63 112.764 19.63C112.444 19.63 112.159 19.705 111.909 19.855C111.669 20.005 111.474 20.21 111.324 20.47C111.184 20.73 111.114 21.025 111.114 21.355C111.114 21.685 111.184 21.98 111.324 22.24C111.464 22.5 111.659 22.705 111.909 22.855C112.159 23.005 112.439 23.08 112.749 23.08ZM116.544 25H114.294V23.035L114.639 21.265L114.249 19.495V14.11H116.544V25ZM119.21 25V17.71H121.505V25H119.21ZM120.365 16.705C120.005 16.705 119.705 16.585 119.465 16.345C119.235 16.095 119.12 15.795 119.12 15.445C119.12 15.085 119.235 14.785 119.465 14.545C119.705 14.305 120.005 14.185 120.365 14.185C120.725 14.185 121.02 14.305 121.25 14.545C121.48 14.785 121.595 15.085 121.595 15.445C121.595 15.795 121.48 16.095 121.25 16.345C121.02 16.585 120.725 16.705 120.365 16.705ZM127.261 28.27C126.461 28.27 125.756 28.13 125.146 27.85C124.546 27.58 124.071 27.195 123.721 26.695L125.131 25.285C125.391 25.595 125.681 25.83 126.001 25.99C126.331 26.15 126.726 26.23 127.186 26.23C127.756 26.23 128.201 26.09 128.521 25.81C128.851 25.53 129.016 25.135 129.016 24.625V22.765L129.406 21.175L129.061 19.585V17.71H131.311V24.565C131.311 25.315 131.136 25.965 130.786 26.515C130.436 27.065 129.956 27.495 129.346 27.805C128.736 28.115 128.041 28.27 127.261 28.27ZM127.156 24.775C126.486 24.775 125.891 24.615 125.371 24.295C124.851 23.975 124.441 23.54 124.141 22.99C123.841 22.44 123.691 21.83 123.691 21.16C123.691 20.48 123.841 19.87 124.141 19.33C124.441 18.78 124.851 18.35 125.371 18.04C125.891 17.72 126.486 17.56 127.156 17.56C127.656 17.56 128.101 17.655 128.491 17.845C128.891 18.025 129.211 18.285 129.451 18.625C129.701 18.955 129.841 19.34 129.871 19.78V22.555C129.841 22.985 129.701 23.37 129.451 23.71C129.211 24.04 128.891 24.3 128.491 24.49C128.091 24.68 127.646 24.775 127.156 24.775ZM127.591 22.735C127.911 22.735 128.186 22.665 128.416 22.525C128.656 22.385 128.836 22.2 128.956 21.97C129.086 21.73 129.151 21.46 129.151 21.16C129.151 20.86 129.086 20.59 128.956 20.35C128.836 20.11 128.656 19.92 128.416 19.78C128.186 19.64 127.911 19.57 127.591 19.57C127.281 19.57 127.006 19.64 126.766 19.78C126.526 19.92 126.341 20.11 126.211 20.35C126.081 20.59 126.016 20.86 126.016 21.16C126.016 21.44 126.081 21.705 126.211 21.955C126.341 22.195 126.521 22.385 126.751 22.525C126.991 22.665 127.271 22.735 127.591 22.735ZM135.016 25V14.695H137.311V25H135.016ZM133.366 19.66V17.71H138.961V19.66H133.366ZM143.921 25.15C143.251 25.15 142.651 24.985 142.121 24.655C141.601 24.325 141.186 23.875 140.876 23.305C140.576 22.735 140.426 22.085 140.426 21.355C140.426 20.625 140.576 19.975 140.876 19.405C141.186 18.835 141.601 18.385 142.121 18.055C142.651 17.725 143.251 17.56 143.921 17.56C144.411 17.56 144.851 17.655 145.241 17.845C145.641 18.035 145.966 18.3 146.216 18.64C146.466 18.97 146.606 19.35 146.636 19.78V22.93C146.606 23.36 146.466 23.745 146.216 24.085C145.976 24.415 145.656 24.675 145.256 24.865C144.856 25.055 144.411 25.15 143.921 25.15ZM144.386 23.08C144.876 23.08 145.271 22.92 145.571 22.6C145.871 22.27 146.021 21.855 146.021 21.355C146.021 21.015 145.951 20.715 145.811 20.455C145.681 20.195 145.491 19.995 145.241 19.855C145.001 19.705 144.721 19.63 144.401 19.63C144.081 19.63 143.796 19.705 143.546 19.855C143.306 19.995 143.111 20.195 142.961 20.455C142.821 20.715 142.751 21.015 142.751 21.355C142.751 21.685 142.821 21.98 142.961 22.24C143.101 22.5 143.296 22.705 143.546 22.855C143.796 23.005 144.076 23.08 144.386 23.08ZM145.931 25V23.035L146.276 21.265L145.931 19.495V17.71H148.181V25H145.931ZM150.847 25V14.11H153.142V25H150.847Z" fill="black"/>
<path d="M162.759 25.15C162.089 25.15 161.489 24.985 160.959 24.655C160.439 24.325 160.024 23.875 159.714 23.305C159.414 22.735 159.264 22.085 159.264 21.355C159.264 20.625 159.414 19.975 159.714 19.405C160.024 18.835 160.439 18.385 160.959 18.055C161.489 17.725 162.089 17.56 162.759 17.56C163.249 17.56 163.689 17.655 164.079 17.845C164.479 18.035 164.804 18.3 165.054 18.64C165.304 18.97 165.444 19.35 165.474 19.78V22.93C165.444 23.36 165.304 23.745 165.054 24.085C164.814 24.415 164.494 24.675 164.094 24.865C163.694 25.055 163.249 25.15 162.759 25.15ZM163.224 23.08C163.714 23.08 164.109 22.92 164.409 22.6C164.709 22.27 164.859 21.855 164.859 21.355C164.859 21.015 164.789 20.715 164.649 20.455C164.519 20.195 164.329 19.995 164.079 19.855C163.839 19.705 163.559 19.63 163.239 19.63C162.919 19.63 162.634 19.705 162.384 19.855C162.144 19.995 161.949 20.195 161.799 20.455C161.659 20.715 161.589 21.015 161.589 21.355C161.589 21.685 161.659 21.98 161.799 22.24C161.939 22.5 162.134 22.705 162.384 22.855C162.634 23.005 162.914 23.08 163.224 23.08ZM164.769 25V23.035L165.114 21.265L164.769 19.495V17.71H167.019V25H164.769ZM172.775 28.27C171.975 28.27 171.27 28.13 170.66 27.85C170.06 27.58 169.585 27.195 169.235 26.695L170.645 25.285C170.905 25.595 171.195 25.83 171.515 25.99C171.845 26.15 172.24 26.23 172.7 26.23C173.27 26.23 173.715 26.09 174.035 25.81C174.365 25.53 174.53 25.135 174.53 24.625V22.765L174.92 21.175L174.575 19.585V17.71H176.825V24.565C176.825 25.315 176.65 25.965 176.3 26.515C175.95 27.065 175.47 27.495 174.86 27.805C174.25 28.115 173.555 28.27 172.775 28.27ZM172.67 24.775C172 24.775 171.405 24.615 170.885 24.295C170.365 23.975 169.955 23.54 169.655 22.99C169.355 22.44 169.205 21.83 169.205 21.16C169.205 20.48 169.355 19.87 169.655 19.33C169.955 18.78 170.365 18.35 170.885 18.04C171.405 17.72 172 17.56 172.67 17.56C173.17 17.56 173.615 17.655 174.005 17.845C174.405 18.025 174.725 18.285 174.965 18.625C175.215 18.955 175.355 19.34 175.385 19.78V22.555C175.355 22.985 175.215 23.37 174.965 23.71C174.725 24.04 174.405 24.3 174.005 24.49C173.605 24.68 173.16 24.775 172.67 24.775ZM173.105 22.735C173.425 22.735 173.7 22.665 173.93 22.525C174.17 22.385 174.35 22.2 174.47 21.97C174.6 21.73 174.665 21.46 174.665 21.16C174.665 20.86 174.6 20.59 174.47 20.35C174.35 20.11 174.17 19.92 173.93 19.78C173.7 19.64 173.425 19.57 173.105 19.57C172.795 19.57 172.52 19.64 172.28 19.78C172.04 19.92 171.855 20.11 171.725 20.35C171.595 20.59 171.53 20.86 171.53 21.16C171.53 21.44 171.595 21.705 171.725 21.955C171.855 22.195 172.035 22.385 172.265 22.525C172.505 22.665 172.785 22.735 173.105 22.735ZM183.095 25.165C182.305 25.165 181.6 25.005 180.98 24.685C180.37 24.355 179.89 23.9 179.54 23.32C179.19 22.74 179.015 22.085 179.015 21.355C179.015 20.625 179.185 19.975 179.525 19.405C179.875 18.825 180.345 18.37 180.935 18.04C181.525 17.71 182.19 17.545 182.93 17.545C183.65 17.545 184.285 17.7 184.835 18.01C185.385 18.32 185.815 18.75 186.125 19.3C186.445 19.85 186.605 20.48 186.605 21.19C186.605 21.32 186.595 21.46 186.575 21.61C186.565 21.75 186.54 21.915 186.5 22.105L180.215 22.12V20.545L185.525 20.53L184.535 21.19C184.525 20.77 184.46 20.425 184.34 20.155C184.22 19.875 184.04 19.665 183.8 19.525C183.57 19.375 183.285 19.3 182.945 19.3C182.585 19.3 182.27 19.385 182 19.555C181.74 19.715 181.535 19.945 181.385 20.245C181.245 20.545 181.175 20.91 181.175 21.34C181.175 21.77 181.25 22.14 181.4 22.45C181.56 22.75 181.78 22.985 182.06 23.155C182.35 23.315 182.69 23.395 183.08 23.395C183.44 23.395 183.765 23.335 184.055 23.215C184.345 23.085 184.6 22.895 184.82 22.645L186.08 23.905C185.72 24.325 185.285 24.64 184.775 24.85C184.265 25.06 183.705 25.165 183.095 25.165ZM193.578 25V20.845C193.578 20.465 193.458 20.16 193.218 19.93C192.988 19.69 192.693 19.57 192.333 19.57C192.083 19.57 191.863 19.625 191.673 19.735C191.483 19.835 191.333 19.985 191.223 20.185C191.113 20.375 191.058 20.595 191.058 20.845L190.173 20.41C190.173 19.84 190.298 19.34 190.548 18.91C190.798 18.48 191.143 18.15 191.583 17.92C192.033 17.68 192.538 17.56 193.098 17.56C193.638 17.56 194.113 17.69 194.523 17.95C194.943 18.2 195.273 18.535 195.513 18.955C195.753 19.375 195.873 19.835 195.873 20.335V25H193.578ZM188.763 25V17.71H191.058V25H188.763ZM200.647 25.03L197.647 17.71H200.122L202.027 23.515H201.112L203.062 17.71H205.537L202.417 25.03H200.647ZM198.772 28.075L200.962 23.35L202.417 25.03L201.127 28.075H198.772Z" fill="#FD6366"/>
<path d="M19.3872 1.23746C20.9434 -0.744978 24.0189 -0.264873 24.9232 2.10165L35.7744 30.4999C36.6787 32.8664 34.7335 35.3445 32.273 34.9604L2.74787 30.3514C0.287444 29.9673 -0.842896 27.0091 0.713265 25.0267L19.3872 1.23746Z" fill="#FD6366"/>
<path d="M33.2351 30.5142C33.2351 31.7291 32.27 32.714 31.0795 32.714C29.889 32.714 28.9239 31.7291 28.9239 30.5142C28.9239 29.2993 29.889 28.3144 31.0795 28.3144C32.27 28.3144 33.2351 29.2993 33.2351 30.5142Z" fill="white"/>
</svg>
