<svg width="24" height="24" viewBox="0 0 24 24" fill="none" xmlns="http://www.w3.org/2000/svg">
<path d="M2 14.4998C2 15.0908 2.1164 15.6759 2.34254 16.2219C2.56869 16.7679 2.90016 17.2639 3.31802 17.6818C4.16193 18.5257 5.30653 18.9998 6.5 18.9998H18.5C19.386 19.0014 20.2396 18.667 20.8886 18.0639C21.5377 17.4609 21.9339 16.6341 21.9973 15.7504C22.0608 14.8668 21.7867 13.9919 21.2304 13.3023C20.6742 12.6127 19.8771 12.1598 19 12.0348C19.0098 10.3336 18.3996 8.68702 17.2837 7.40292C16.1677 6.11881 14.6223 5.28507 12.9363 5.05753C11.2503 4.83 9.5392 5.22425 8.12277 6.1666C6.70633 7.10894 5.68156 8.53486 5.24 10.1778C4.30512 10.4508 3.48398 11.0197 2.8998 11.7989C2.31562 12.5782 1.99989 13.5259 2 14.4998Z" stroke="#7DDDFF" stroke-linejoin="round"/>
</svg>
