<svg width="24" height="24" viewBox="0 0 24 24" fill="none" xmlns="http://www.w3.org/2000/svg">
<path d="M12 20.25C12.8284 20.25 13.5 19.5784 13.5 18.75C13.5 17.9216 12.8284 17.25 12 17.25C11.1716 17.25 10.5 17.9216 10.5 18.75C10.5 19.5784 11.1716 20.25 12 20.25Z" fill="#7DDDFF"/>
<path d="M7.85254 14.4249L8.91304 15.4847C9.7442 14.6932 10.8476 14.2512 11.9953 14.2499C13.143 14.2487 14.2474 14.6883 15.0803 15.4779L16.14 14.4182C15.0261 13.3469 13.5403 12.7491 11.9948 12.7505C10.4493 12.7519 8.96453 13.3516 7.85254 14.4249Z" fill="#7DDDFF"/>
<path d="M4.67188 11.2446L5.73238 12.3043C7.40633 10.6679 9.6539 9.75104 11.9948 9.74964C14.3358 9.74824 16.5845 10.6624 18.2604 12.2968L19.3201 11.2371C17.3633 9.32104 14.7332 8.2486 11.9945 8.25C9.25576 8.2514 6.62676 9.32654 4.67188 11.2446Z" fill="#7DDDFF"/>
<path d="M22.5 8.05596C19.7017 5.29682 15.9298 3.75 12 3.75C8.07019 3.75 4.29831 5.29682 1.5 8.05596V8.07321L2.553 9.12621C5.06874 6.64413 8.46027 5.25189 11.9943 5.25048C15.5284 5.24908 18.921 6.63863 21.4387 9.11871L22.5 8.05746V8.05596Z" fill="#7DDDFF"/>
</svg>
