<svg width="1239" height="95" viewBox="0 0 1239 95" fill="none" xmlns="http://www.w3.org/2000/svg">
<path d="M0.813952 75.8702C0.466384 75.3392 0.217228 74.7384 0.0919531 74.0939L0.582768 73.9985C0.52849 73.7193 0.5 73.4306 0.5 73.1349V72.1329H0V70.1289H0.5V68.125H0V66.121H0.5V64.117H0V62.1131H0.5V60.1091H0V58.1051H0.5V56.1012H0V54.0972H0.5V52.0932H0V50.0893H0.5V48.0853H0V46.0813H0.5V44.0774H0V42.0734H0.5V40.0694H0V38.0655H0.5V36.0615H0V34.0575H0.5V32.0536H0V30.0496H0.5V28.0456H0V26.0417H0.5V24.0377H0V22.0337H0.5V20.0298H0V18.0258H0.5V16.0218H0V14.0179H0.5V12.0139H0V10.0099H0.5V8.00595H0V6.00199H0.5V5C0.5 4.69883 0.529517 4.40504 0.585664 4.12123L0.0951702 4.02419C0.224941 3.36822 0.483023 2.75838 0.842173 2.22192L1.25766 2.50008C1.58634 2.00914 2.00913 1.58634 2.50008 1.25766L2.22192 0.842174C2.75838 0.483024 3.36822 0.224942 4.02419 0.0951703L4.12122 0.585664C4.40504 0.529517 4.69883 0.5 5 0.5H6.00146V0H8.00305V0.5H10.0046V0H12.0062V0.5H14.0078V0H16.0094V0.5H18.011V0H20.0126V0.5H22.0141V0H24.0157V0.5H26.0173V0H28.0189V0.5H30.0205V0H32.0221V0.5H34.0237V0H36.0252V0.5H38.0268V0H40.0284V0.5H42.03V0H44.0316V0.5H46.0332V0H48.0348V0.5H50.0364V0H52.0379V0.5H54.0395V0H56.0411V0.5H58.0427V0H60.0443V0.5H62.0459V0H64.0475V0.5H66.0491V0H68.0507V0.5H70.0522V0H72.0538V0.5H74.0554V0H76.057V0.5H78.0586V0H80.0602V0.5H82.0618V0H84.0634V0.5H86.065V0H88.0665V0.5H90.0681V0H92.0697V0.5H94.0713V0H96.0729V0.5H98.0745V0H100.076V0.5H102.078V0H104.079V0.5H106.081V0H108.082V0.5H110.084V0H112.086V0.5H114.087V0H116.089V0.5H118.09V0H120.092V0.5H122.094V0H124.095V0.5H126.097V0H128.098V0.5H130.1V0H132.101V0.5H134.103V0H136.105V0.5H138.106V0H140.108V0.5H142.109V0H144.111V0.5H146.113V0H148.114V0.5H150.116V0H152.117V0.5H154.119V0H156.121V0.5H158.122V0H160.124V0.5H162.125V0H164.127V0.5H166.128V0H168.13V0.5H170.132V0H172.133V0.5H174.135V0H176.136V0.5H178.138V0H180.14V0.5H182.141V0H184.143V0.5H186.144V0H188.146V0.5H190.147V0H192.149V0.5H194.151V0H196.152V0.5H198.154V0H200.155V0.5H202.157V0H204.159V0.5H206.16V0H208.162V0.5H210.163V0H212.165V0.5H214.167V0H216.168V0.5H218.17V0H220.172V0.5H222.173V0H224.175V0.5H226.176V0H228.178V0.5H230.18V0H232.181V0.5H234.183V0H236.185V0.5H238.186V0H240.188V0.5H242.19V0H244.191V0.5H246.193V0H248.195V0.5H250.196V0H252.198V0.5H254.2V0H256.201V0.5H258.203V0H260.204V0.5H262.206V0H264.208V0.5H266.21V0H268.211V0.5H270.213V0H272.214V0.5H274.216V0H276.218V0.5H278.219V0H280.221V0.5H282.223V0H284.224V0.5H286.226V0H288.228V0.5H290.229V0H292.231V0.5H294.233V0H296.234V0.5H298.236V0H300.237V0.5H302.239V0H304.241V0.5H306.242V0H308.244V0.5H310.246V0H312.247V0.5H314.249V0H316.251V0.5H318.252V0H320.254V0.5H322.256V0H324.257V0.5H326.259V0H328.261V0.5H330.262V0H332.264V0.5H334.266V0H336.267V0.5H338.269V0H340.27V0.5H342.272V0H344.274V0.5H346.275V0H348.277V0.5H350.279V0H352.28V0.5H354.282V0H356.284V0.5H358.285V0H360.287V0.5H362.289V0H364.29V0.5H366.292V0H368.293V0.5H370.295V0H372.297V0.5H374.298V0H376.3V0.5H378.302V0H380.303V0.5H382.305V0H384.307V0.5H386.308V0H388.31V0.5H390.312V0H392.313V0.5H394.315V0H396.317V0.5H398.318V0H400.32V0.5H402.322V0H404.323V0.5H406.325V0H408.327V0.5H410.328V0H412.33V0.5H414.331V0H416.333V0.5H418.335V0H420.336V0.5H422.338V0H424.34V0.5H426.341V0H428.343V0.5H430.345V0H432.346V0.5H434.348V0H436.35V0.5H438.351V0H440.353V0.5H442.354V0H444.356V0.5H446.358V0H448.359V0.5H450.361V0H452.363V0.5H454.364V0H456.366V0.5H458.368V0H460.369V0.5H462.371V0H464.373V0.5H466.374V0H468.376V0.5H470.378V0H472.379V0.5H474.381V0H476.383V0.5H478.384V0H480.386V0.5H482.387V0H484.389V0.5H486.391V0H488.392V0.5H490.394V0H492.396V0.5H494.397V0H496.399V0.5H498.401V0H500.402V0.5H502.404V0H504.406V0.5H506.407V0H508.409V0.5H510.41V0H512.412V0.5H514.414V0H516.416V0.5H518.417V0H520.419V0.5H522.42V0H524.422V0.5H526.424V0H528.425V0.5H530.427V0H532.429V0.5H534.43V0H536.432V0.5H538.434V0H540.435V0.5H542.437V0H544.439V0.5H546.44V0H548.442V0.5H550.443V0H552.445V0.5H554.447V0H556.448V0.5H558.45V0H560.452V0.5H562.453V0H564.455V0.5H566.457V0H568.458V0.5H570.46V0H572.462V0.5H574.463V0H576.465V0.5H578.467V0H580.468V0.5H582.47V0H584.471V0.5H586.473V0H588.475V0.5H590.476V0H592.478V0.5H594.48V0H596.481V0.5H598.483V0H600.485V0.5H602.486V0H604.488V0.5H606.49V0H608.491V0.5H610.493V0H612.495V0.5H614.496V0H616.498V0.5H618.5V0H620.501V0.5H622.503V0H624.504V0.5H626.506V0H628.508V0.5H630.509V0H632.511V0.5H634.513V0H636.514V0.5H638.516V0H640.518V0.5H642.519V0H644.521V0.5H646.523V0H648.524V0.5H650.526V0H652.528V0.5H654.529V0H656.531V0.5H658.532V0H660.534V0.5H662.536V0H664.537V0.5H666.539V0H668.541V0.5H670.542V0H672.544V0.5H674.546V0H676.547V0.5H678.549V0H680.551V0.5H682.552V0H684.554V0.5H686.556V0H688.557V0.5H690.559V0H692.56V0.5H694.562V0H696.564V0.5H698.565V0H700.567V0.5H702.569V0H704.57V0.5H706.572V0H708.574V0.5H710.575V0H712.577V0.5H714.579V0H716.58V0.5H718.582V0H720.584V0.5H722.585V0H724.587V0.5H726.588V0H728.59V0.5H730.592V0H732.593V0.5H734.595V0H736.596V0.5H738.598V0H740.6V0.5H742.601V0H744.603V0.5H746.605V0H748.606V0.5H750.608V0H752.609V0.5H754.611V0H756.613V0.5H758.614V0H760.616V0.5H762.618V0H764.619V0.5H766.621V0H768.622V0.5H770.624V0H772.626V0.5H774.627V0H776.629V0.5H778.63V0H780.632V0.5H782.634V0H784.635V0.5H786.637V0H788.639V0.5H790.64V0H792.642V0.5H794.643V0H796.645V0.5H798.647V0H800.648V0.5H802.65V0H804.651V0.5H806.653V0H808.655V0.5H810.656V0H812.658V0.5H814.66V0H816.661V0.5H818.663V0H820.664V0.5H822.666V0H824.668V0.5H826.669V0H828.671V0.5H830.672V0H832.674V0.5H834.676V0H836.677V0.5H838.679V0H840.681V0.5H842.682V0H844.684V0.5H846.685V0H848.687V0.5H850.689V0H852.69V0.5H854.692V0H856.694V0.5H858.695V0H860.697V0.5H862.698V0H864.7V0.5H866.702V0H868.703V0.5H870.705V0H872.706V0.5H874.708V0H876.71V0.5H878.711V0H880.713V0.5H882.715V0H884.716V0.5H886.718V0H888.719V0.5H890.721V0H892.723V0.5H894.724V0H896.726V0.5H898.728V0H900.729V0.5H902.731V0H904.732V0.5H906.734V0H908.736V0.5H910.737V0H912.739V0.5H914.74V0H916.742V0.5H918.744V0H920.745V0.5H922.747V0H924.749V0.5H926.75V0H928.752V0.5H930.753V0H932.755V0.5H934.757V0H936.758V0.5H938.76V0H940.761V0.5H942.763V0H944.765V0.5H946.766V0H948.768V0.5H950.77V0H952.771V0.5H954.773V0H956.774V0.5H958.776V0H960.778V0.5H962.779V0H964.781V0.5H966.783V0H968.784V0.5H970.786V0H972.787V0.5H974.789V0H976.791V0.5H978.792V0H980.794V0.5H982.795V0H984.797V0.5H986.799V0H988.8V0.5H990.802V0H992.804V0.5H994.805V0H996.807V0.5H998.809V0H1000.81V0.5H1002.81V0H1004.81V0.5H1006.82V0H1008.82V0.5H1010.82V0H1012.82V0.5H1014.82V0H1016.82V0.5H1018.82V0H1020.83V0.5H1022.83V0H1024.83V0.5H1026.83V0H1028.83V0.5H1030.83V0H1032.84V0.5H1034.84V0H1036.84V0.5H1038.84V0H1040.84V0.5H1042.84V0H1044.85V0.5H1046.85V0H1048.85V0.5H1050.85V0H1052.85V0.5H1054.85V0H1056.86V0.5H1058.86V0H1060.86V0.5H1062.86V0H1064.86V0.5H1066.86V0H1068.87V0.5H1070.87V0H1072.87V0.5H1074.87V0H1076.87V0.5H1078.87V0H1080.88V0.5H1082.88V0H1084.88V0.5H1086.88V0H1088.88V0.5H1090.88V0H1092.89V0.5H1094.89V0H1096.89V0.5H1098.89V0H1100.89V0.5H1102.89V0H1104.9V0.5H1106.9V0H1108.9V0.5H1110.9V0H1112.9V0.5H1114.9V0H1116.9V0.5H1118.91V0H1120.91V0.5H1122.91V0H1124.91V0.5H1126.91V0H1128.91V0.5H1130.92V0H1132.92V0.5H1134.92V0H1136.92V0.5H1138.92V0H1140.92V0.5H1142.93V0H1144.93V0.5H1146.93V0H1148.93V0.5H1150.93V0H1152.93V0.5H1154.94V0H1156.94V0.5H1158.94V0H1160.94V0.5H1162.94V0H1164.94V0.5H1166.95V0H1168.95V0.5H1170.95V0H1172.95V0.5H1174.95V0H1176.95V0.5H1178.96V0H1180.96V0.5H1182.96V0H1184.96V0.5H1186.96V0H1188.96V0.5H1190.96V0H1192.97V0.5H1194.97V0H1196.97V0.5H1198.97V0H1200.97V0.5H1202.97V0H1204.98V0.5H1206.98V0H1208.98V0.5H1210.98V0H1212.98V0.5H1214.98V0H1216.99V0.5H1218.99V0H1220.99V0.5H1222.99V0H1224.99V0.5H1226.99V0H1229V0.5H1231V0H1233V0.5H1234C1234.3 0.5 1234.59 0.529518 1234.88 0.585667L1234.98 0.095178C1235.63 0.224954 1236.24 0.483039 1236.78 0.842191L1236.5 1.25767C1236.99 1.58635 1237.41 2.00915 1237.74 2.50009L1238.16 2.22191C1238.52 2.75837 1238.78 3.36821 1238.9 4.02418L1238.41 4.12123C1238.47 4.40504 1238.5 4.69883 1238.5 5V6.00199H1239V8.00598H1238.5V10.01H1239V12.014H1238.5V14.018H1239V16.022H1238.5V18.0259H1239V20.0299H1238.5V22.0339H1239V24.0379H1238.5V26.0419H1239V28.0459H1238.5V30.0499H1239V32.0539H1238.5V34.0579H1239V36.0619H1238.5V38.0659H1239V40.0699H1238.5V42.0739H1239V44.0779H1238.5V46.0819H1239V48.0858H1238.5V50.0898H1239V52.0938H1238.5V54.0978H1239V56.1018H1238.5V58.1058H1239V60.1098H1238.5V62.1138H1239V64.1178H1238.5V66.1218H1239V68.1258H1238.5V70.1298H1239V72.1338H1238.5V73.1358C1238.5 73.4314 1238.47 73.72 1238.42 73.9993L1238.91 74.0947C1238.78 74.7391 1238.53 75.3398 1238.19 75.8708L1237.77 75.5969C1237.45 76.0826 1237.04 76.5034 1236.56 76.8345L1236.85 77.2451C1236.33 77.6071 1235.73 77.8726 1235.09 78.0156L1234.98 77.5276C1234.71 77.5895 1234.42 77.6259 1234.12 77.6341L1233.12 77.6616L1233.14 78.1614L1231.14 78.2165L1231.12 77.7167L1229.12 77.7718L1229.13 78.2716L1227.13 78.3268L1227.12 77.827L1225.11 77.8821L1225.13 78.3819L1223.13 78.437L1223.11 77.9372L1221.11 77.9923L1221.12 78.4921L1219.12 78.5472L1219.11 78.0474L1217.11 78.1025L1217.12 78.6024L1215.12 78.6575L1215.1 78.1577L1213.1 78.2128L1213.12 78.7126L1211.11 78.7677L1211.1 78.2679L1209.1 78.323L1209.11 78.8228L1207.11 78.878L1207.1 78.3781L1205.09 78.4333L1205.11 78.9331L1203.11 78.9882L1203.09 78.4884L1201.09 78.5435L1201.1 79.0433L1199.1 79.0984L1199.09 78.5986L1197.09 78.6537L1197.1 79.1535L1195.1 79.2087L1195.08 78.7089L1193.08 78.764L1193.09 79.2638L1191.09 79.3189L1191.08 78.8191L1189.08 78.8742L1189.09 79.374L1187.09 79.4291L1187.07 78.9293L1185.07 78.9844L1185.09 79.4843L1183.08 79.5394L1183.07 79.0396L1181.07 79.0947L1181.08 79.5945L1179.08 79.6496L1179.07 79.1498L1177.06 79.2049L1177.08 79.7047L1175.08 79.7598L1175.06 79.26L1173.06 79.3152L1173.07 79.815L1171.07 79.8701L1171.06 79.3703L1169.06 79.4254L1169.07 79.9252L1167.07 79.9803L1167.05 79.4805L1165.05 79.5356L1165.07 80.0354L1163.06 80.0906L1163.05 79.5908L1161.05 79.6459L1161.06 80.1457L1159.06 80.2008L1159.05 79.701L1157.04 79.7561L1157.06 80.2559L1155.05 80.311L1155.04 79.8112L1153.04 79.8663L1153.05 80.3662L1151.05 80.4213L1151.04 79.9215L1149.03 79.9766L1149.05 80.4764L1147.05 80.5315L1147.03 80.0317L1145.03 80.0868L1145.04 80.5866L1143.04 80.6418L1143.03 80.1419L1141.03 80.1971L1141.04 80.6969L1139.04 80.752L1139.02 80.2522L1137.02 80.3073L1137.04 80.8071L1135.03 80.8622L1135.02 80.3624L1133.02 80.4175L1133.03 80.9173L1131.03 80.9725L1131.02 80.4727L1129.01 80.5278L1129.03 81.0276L1127.03 81.0827L1127.01 80.5829L1125.01 80.638L1125.02 81.1378L1123.02 81.1929L1123.01 80.6931L1121.01 80.7482L1121.02 81.2481L1119.02 81.3032L1119 80.8034L1117 80.8585L1117.02 81.3583L1115.01 81.4134L1115 80.9136L1113 80.9687L1113.01 81.4685L1111.01 81.5236L1111 81.0238L1108.99 81.0789L1109.01 81.5788L1107 81.6339L1106.99 81.1341L1104.99 81.1892L1105 81.689L1103 81.7441L1102.99 81.2443L1100.98 81.2994L1101 81.7992L1099 81.8543L1098.98 81.3545L1096.98 81.4097L1096.99 81.9095L1094.99 81.9646L1094.98 81.4648L1092.98 81.5199L1092.99 82.0197L1090.99 82.0748L1090.97 81.575L1088.97 81.6301L1088.99 82.1299L1086.98 82.1851L1086.97 81.6852L1084.97 81.7404L1084.98 82.2402L1082.98 82.2953L1082.97 81.7955L1080.96 81.8506L1080.98 82.3504L1078.98 82.4055L1078.96 81.9057L1076.96 81.9608L1076.97 82.4606L1074.97 82.5158L1074.96 82.016L1072.96 82.0711L1072.97 82.5709L1070.97 82.626L1070.95 82.1262L1068.95 82.1813L1068.97 82.6811L1066.96 82.7362L1066.95 82.2364L1064.95 82.2915L1064.96 82.7914L1062.96 82.8465L1062.95 82.3467L1060.94 82.4018L1060.96 82.9016L1058.95 82.9567L1058.94 82.4569L1056.94 82.512L1056.95 83.0118L1054.95 83.0669L1054.94 82.5671L1052.93 82.6223L1052.95 83.1221L1050.95 83.1772L1050.93 82.6774L1048.93 82.7325L1048.94 83.2323L1046.94 83.2874L1046.93 82.7876L1044.93 82.8427L1044.94 83.3425L1042.94 83.3977L1042.92 82.8978L1040.92 82.953L1040.94 83.4528L1038.93 83.5079L1038.92 83.0081L1036.92 83.0632L1036.93 83.563L1034.93 83.6181L1034.92 83.1183L1032.91 83.1734L1032.93 83.6732L1030.93 83.7284L1030.91 83.2286L1028.91 83.2837L1028.92 83.7835L1026.92 83.8386L1026.91 83.3388L1024.91 83.3939L1024.92 83.8937L1022.92 83.9488L1022.9 83.449L1020.9 83.5041L1020.92 84.004L1018.91 84.0591L1018.9 83.5593L1016.9 83.6144L1016.91 84.1142L1014.91 84.1693L1014.9 83.6695L1012.89 83.7246L1012.91 84.2244L1010.9 84.2795L1010.89 83.7797L1008.89 83.8349L1008.9 84.3347L1006.9 84.3898L1006.89 83.89L1004.88 83.9451L1004.9 84.4449L1002.9 84.5L1002.88 84.0002L1000.88 84.0553L1000.89 84.5551L998.892 84.6103L998.879 84.1104L996.877 84.1656L996.89 84.6654L994.888 84.7205L994.874 84.2207L992.872 84.2758L992.886 84.7756L990.884 84.8307L990.87 84.3309L988.868 84.386L988.882 84.8858L986.88 84.941L986.866 84.4411L984.864 84.4963L984.878 84.9961L982.876 85.0512L982.862 84.5514L980.86 84.6065L980.874 85.1063L978.872 85.1614L978.858 84.6616L976.856 84.7167L976.87 85.2165L974.867 85.2717L974.854 84.7719L972.852 84.827L972.865 85.3268L970.863 85.3819L970.85 84.8821L968.847 84.9372L968.861 85.437L966.859 85.4921L966.845 84.9923L964.843 85.0474L964.857 85.5473L962.855 85.6024L962.841 85.1026L960.839 85.1577L960.853 85.6575L958.851 85.7126L958.837 85.2128L956.835 85.2679L956.849 85.7677L954.847 85.8228L954.833 85.323L952.831 85.3782L952.845 85.878L950.842 85.9331L950.829 85.4333L948.827 85.4884L948.84 85.9882L946.838 86.0433L946.825 85.5435L944.823 85.5986L944.836 86.0984L942.834 86.1536L942.82 85.6537L940.818 85.7089L940.832 86.2087L938.83 86.2638L938.816 85.764L936.814 85.8191L936.828 86.3189L934.826 86.374L934.812 85.8742L932.81 85.9293L932.824 86.4291L930.822 86.4843L930.808 85.9845L928.806 86.0396L928.82 86.5394L926.818 86.5945L926.804 86.0947L924.802 86.1498L924.815 86.6496L922.813 86.7047L922.8 86.2049L920.798 86.26L920.811 86.7598L918.809 86.815L918.795 86.3152L916.793 86.3703L916.807 86.8701L914.805 86.9252L914.791 86.4254L912.789 86.4805L912.803 86.9803L910.801 87.0354L910.787 86.5356L908.785 86.5908L908.799 87.0906L906.797 87.1457L906.783 86.6459L904.781 86.701L904.795 87.2008L902.793 87.2559L902.779 86.7561L900.777 86.8112L900.79 87.311L898.788 87.3661L898.775 86.8663L896.773 86.9215L896.786 87.4213L894.784 87.4764L894.77 86.9766L892.768 87.0317L892.782 87.5315L890.78 87.5866L890.766 87.0868L888.764 87.1419L888.778 87.6417L886.776 87.6969L886.762 87.197L884.76 87.2522L884.774 87.752L882.772 87.8071L882.758 87.3073L880.756 87.3624L880.77 87.8622L878.768 87.9173L878.754 87.4175L876.752 87.4726L876.766 87.9725L874.763 88.0276L874.75 87.5278L872.748 87.5829L872.761 88.0827L870.759 88.1378L870.745 87.638L868.743 87.6931L868.757 88.1929L866.755 88.248L866.741 87.7482L864.739 87.8033L864.753 88.3032L862.751 88.3583L862.737 87.8585L860.735 87.9136L860.749 88.4134L858.747 88.4685L858.733 87.9687L856.731 88.0238L856.745 88.5236L854.743 88.5787L854.729 88.0789L852.727 88.1341L852.741 88.6339L850.739 88.689L850.725 88.1892L848.723 88.2443L848.736 88.7441L846.734 88.7992L846.721 88.2994L844.719 88.3545L844.732 88.8543L842.73 88.9095L842.716 88.4096L840.714 88.4648L840.728 88.9646L838.726 89.0197L838.712 88.5199L836.71 88.575L836.724 89.0748L834.722 89.1299L834.708 88.6301L832.706 88.6852L832.72 89.185L830.718 89.2402L830.704 88.7403L828.702 88.7955L828.716 89.2953L826.714 89.3504L826.7 88.8506L824.698 88.9057L824.711 89.4055L822.709 89.4606L822.696 88.9608L820.694 89.0159L820.707 89.5158L818.705 89.5709L818.691 89.0711L816.689 89.1262L816.703 89.626L814.701 89.6811L814.687 89.1813L812.685 89.2364L812.699 89.7362L810.697 89.7913L810.683 89.2915L808.681 89.3466L808.695 89.8465L806.693 89.9016L806.679 89.4018L804.677 89.4569L804.691 89.9567L802.689 90.0118L802.675 89.512L800.673 89.5671L800.686 90.0669L798.684 90.122L798.671 89.6222L796.669 89.6774L796.682 90.1772L794.68 90.2323L794.667 89.7325L792.664 89.7876L792.678 90.2874L790.676 90.3425L790.662 89.8427L788.66 89.8978L788.674 90.3976L786.672 90.4528L786.658 89.9529L784.656 90.0081L784.67 90.5079L782.668 90.563L782.654 90.0632L780.652 90.1183L780.666 90.6181L778.664 90.6732L778.65 90.1734L776.648 90.2285L776.661 90.7283L774.659 90.7835L774.646 90.2837L772.644 90.3388L772.657 90.8386L770.655 90.8937L770.642 90.3939L768.639 90.449L768.653 90.9488L766.651 91.0039L766.637 90.5041L764.635 90.5592L764.649 91.0591L762.647 91.1142L762.633 90.6144L760.631 90.6695L760.645 91.1693L758.643 91.2244L758.629 90.7246L756.627 90.7797L756.641 91.2795L754.639 91.3346L754.625 90.8348L752.623 90.89L752.637 91.3898L750.634 91.4449L750.621 90.9451L748.619 91.0002L748.632 91.5L746.63 91.5551L746.617 91.0553L744.615 91.1104L744.628 91.6102L742.626 91.6654L742.612 91.1655L740.61 91.2207L740.624 91.7205L738.622 91.7756L738.608 91.2758L736.606 91.3309L736.62 91.8307L734.618 91.8858L734.604 91.386L732.602 91.4411L732.616 91.9409L730.614 91.9961L730.6 91.4963L728.598 91.5514L728.612 92.0512L726.609 92.1063L726.596 91.6065L724.594 91.6616L724.607 92.1614L722.605 92.2165L722.592 91.7167L720.589 91.7718L720.603 92.2717L718.601 92.3268L718.587 91.827L716.585 91.8821L716.599 92.3819L714.597 92.437L714.583 91.9372L712.581 91.9923L712.595 92.4921L710.593 92.5472L710.579 92.0474L708.577 92.1026L708.591 92.6024L706.589 92.6575L706.575 92.1577L704.573 92.2128L704.586 92.7126L702.584 92.7677L702.571 92.2679L700.569 92.323L700.582 92.8228L698.58 92.878L698.566 92.3781L696.564 92.4333L696.578 92.9331L694.576 92.9882L694.562 92.4884L692.56 92.5435L692.574 93.0433L690.572 93.0984L690.558 92.5986L688.556 92.6537L688.57 93.1535L686.568 93.2087L686.554 92.7089L684.552 92.764L684.566 93.2638L682.564 93.3189L682.55 92.8191L680.548 92.8742L680.561 93.374L678.559 93.4291L678.546 92.9293L676.544 92.9844L676.557 93.4843L674.555 93.5394L674.541 93.0396L672.539 93.0947L672.553 93.5945L670.551 93.6496L670.537 93.1498L668.535 93.2049L668.549 93.7047L666.547 93.7598L666.533 93.26L664.531 93.3151L664.545 93.815L662.543 93.8701L662.529 93.3703L660.527 93.4254L660.541 93.9252L658.539 93.9803L658.525 93.4805L656.523 93.5356L656.536 94.0354L654.534 94.0906L654.521 93.5907L652.519 93.6459L652.532 94.1457L650.53 94.2008L650.516 93.701L648.514 93.7561L648.528 94.2559L646.526 94.311L646.512 93.8112L644.51 93.8663L644.524 94.3661L642.522 94.4213L642.508 93.9214L640.506 93.9766L640.52 94.4764L638.518 94.5315L638.504 94.0317L636.502 94.0868L636.516 94.5866L634.514 94.6417L634.5 94.1419L632.498 94.197L632.511 94.6969L630.509 94.752L630.496 94.2522L628.494 94.3073L628.507 94.8071L626.505 94.8622L626.491 94.3624L624.489 94.4175L624.503 94.9173L622.501 94.9724L622.487 94.4726L621.514 94.5002H621.486L620.511 94.4728L620.498 94.9726L618.496 94.9178L618.509 94.418L616.507 94.3633L616.494 94.8631L614.492 94.8083L614.505 94.3085L612.503 94.2537L612.49 94.7535L610.488 94.6988L610.501 94.199L608.499 94.1442L608.485 94.644L606.483 94.5892L606.497 94.0894L604.495 94.0347L604.481 94.5345L602.479 94.4797L602.493 93.9799L600.491 93.9251L600.477 94.425L598.475 94.3702L598.489 93.8704L596.487 93.8156L596.473 94.3154L594.471 94.2607L594.485 93.7609L592.483 93.7061L592.469 94.2059L590.467 94.1511L590.481 93.6513L588.479 93.5966L588.465 94.0964L586.463 94.0416L586.477 93.5418L584.474 93.487L584.461 93.9869L582.459 93.9321L582.472 93.4323L580.47 93.3775L580.457 93.8773L578.455 93.8226L578.468 93.3228L576.466 93.268L576.453 93.7678L574.45 93.713L574.464 93.2132L572.462 93.1585L572.448 93.6583L570.446 93.6035L570.46 93.1037L568.458 93.0489L568.444 93.5488L566.442 93.494L566.456 92.9942L564.454 92.9394L564.44 93.4392L562.438 93.3845L562.452 92.8847L560.45 92.8299L560.436 93.3297L558.434 93.2749L558.448 92.7751L556.446 92.7204L556.432 93.2202L554.43 93.1654L554.444 92.6656L552.441 92.6108L552.428 93.1107L550.426 93.0559L550.439 92.5561L548.437 92.5013L548.424 93.0011L546.422 92.9464L546.435 92.4466L544.433 92.3918L544.42 92.8916L542.418 92.8368L542.431 92.337L540.429 92.2823L540.415 92.7821L538.413 92.7273L538.427 92.2275L536.425 92.1727L536.411 92.6726L534.409 92.6178L534.423 92.118L532.421 92.0632L532.407 92.563L530.405 92.5083L530.419 92.0085L528.417 91.9537L528.403 92.4535L526.401 92.3987L526.415 91.8989L524.413 91.8442L524.399 92.344L522.397 92.2892L522.411 91.7894L520.409 91.7346L520.395 92.2345L518.393 92.1797L518.406 91.6799L516.404 91.6251L516.391 92.1249L514.389 92.0702L514.402 91.5704L512.4 91.5156L512.387 92.0154L510.385 91.9606L510.398 91.4608L508.396 91.4061L508.383 91.9059L506.38 91.8511L506.394 91.3513L504.392 91.2965L504.378 91.7963L502.376 91.7416L502.39 91.2418L500.388 91.187L500.374 91.6868L498.372 91.6321L498.386 91.1322L496.384 91.0775L496.37 91.5773L494.368 91.5225L494.382 91.0227L492.38 90.968L492.366 91.4678L490.364 91.413L490.378 90.9132L488.376 90.8584L488.362 91.3583L486.36 91.3035L486.374 90.8037L484.371 90.7489L484.358 91.2487L482.356 91.194L482.369 90.6942L480.367 90.6394L480.354 91.1392L478.352 91.0844L478.365 90.5846L476.363 90.5299L476.35 91.0297L474.348 90.9749L474.361 90.4751L472.359 90.4203L472.345 90.9202L470.343 90.8654L470.357 90.3656L468.355 90.3108L468.341 90.8106L466.339 90.7559L466.353 90.2561L464.351 90.2013L464.337 90.7011L462.335 90.6463L462.349 90.1465L460.347 90.0918L460.333 90.5916L458.331 90.5368L458.345 90.037L456.343 89.9822L456.329 90.482L454.327 90.4273L454.341 89.9275L452.339 89.8727L452.325 90.3725L450.323 90.3178L450.336 89.8179L448.334 89.7632L448.321 90.263L446.319 90.2082L446.332 89.7084L444.33 89.6537L444.317 90.1535L442.315 90.0987L442.328 89.5989L440.326 89.5441L440.312 90.0439L438.31 89.9892L438.324 89.4894L436.322 89.4346L436.308 89.9344L434.306 89.8797L434.32 89.3798L432.318 89.3251L432.304 89.8249L430.302 89.7701L430.316 89.2703L428.314 89.2156L428.3 89.7154L426.298 89.6606L426.312 89.1608L424.31 89.106L424.296 89.6058L422.294 89.5511L422.308 89.0513L420.306 88.9965L420.292 89.4963L418.29 89.4416L418.304 88.9417L416.301 88.887L416.288 89.3868L414.286 89.332L414.299 88.8322L412.297 88.7775L412.284 89.2773L410.282 89.2225L410.295 88.7227L408.293 88.6679L408.28 89.1677L406.278 89.113L406.291 88.6132L404.289 88.5584L404.275 89.0582L402.273 89.0035L402.287 88.5036L400.285 88.4489L400.271 88.9487L398.269 88.8939L398.283 88.3941L396.281 88.3394L396.267 88.8392L394.265 88.7844L394.279 88.2846L392.277 88.2298L392.263 88.7296L390.261 88.6749L390.275 88.1751L388.273 88.1203L388.259 88.6201L386.257 88.5654L386.271 88.0655L384.269 88.0108L384.255 88.5106L382.253 88.4558L382.266 87.956L380.264 87.9013L380.251 88.4011L378.249 88.3463L378.262 87.8465L376.26 87.7917L376.247 88.2915L374.245 88.2368L374.258 87.737L372.256 87.6822L372.243 88.182L370.24 88.1273L370.254 87.6274L368.252 87.5727L368.238 88.0725L366.236 88.0177L366.25 87.5179L364.248 87.4632L364.234 87.963L362.232 87.9082L362.246 87.4084L360.244 87.3536L360.23 87.8534L358.228 87.7987L358.242 87.2989L356.24 87.2441L356.226 87.7439L354.224 87.6892L354.238 87.1893L352.236 87.1346L352.222 87.6344L350.22 87.5796L350.234 87.0798L348.232 87.025L348.218 87.5249L346.216 87.4701L346.229 86.9703L344.227 86.9155L344.214 87.4153L342.212 87.3606L342.225 86.8608L340.223 86.806L340.21 87.3058L338.208 87.2511L338.221 86.7512L336.219 86.6965L336.205 87.1963L334.203 87.1415L334.217 86.6417L332.215 86.587L332.201 87.0868L330.199 87.032L330.213 86.5322L328.211 86.4774L328.197 86.9772L326.195 86.9225L326.209 86.4227L324.207 86.3679L324.193 86.8677L322.191 86.813L322.205 86.3131L320.203 86.2584L320.189 86.7582L318.187 86.7034L318.201 86.2036L316.199 86.1488L316.185 86.6487L314.183 86.5939L314.197 86.0941L312.194 86.0393L312.181 86.5391L310.179 86.4844L310.192 85.9846L308.19 85.9298L308.177 86.4296L306.175 86.3748L306.188 85.875L304.186 85.8203L304.173 86.3201L302.17 86.2653L302.184 85.7655L300.182 85.7107L300.168 86.2106L298.166 86.1558L298.18 85.656L296.178 85.6012L296.164 86.101L294.162 86.0463L294.176 85.5465L292.174 85.4917L292.16 85.9915L290.158 85.9367L290.172 85.4369L288.17 85.3822L288.156 85.882L286.154 85.8272L286.168 85.3274L284.166 85.2726L284.152 85.7725L282.15 85.7177L282.164 85.2179L280.161 85.1631L280.148 85.6629L278.146 85.6082L278.159 85.1084L276.157 85.0536L276.144 85.5534L274.142 85.4986L274.155 84.9988L272.153 84.9441L272.14 85.4439L270.138 85.3891L270.151 84.8893L268.149 84.8345L268.135 85.3344L266.133 85.2796L266.147 84.7798L264.145 84.725L264.131 85.2248L262.129 85.1701L262.143 84.6703L260.141 84.6155L260.127 85.1153L258.125 85.0605L258.139 84.5607L256.137 84.506L256.123 85.0058L254.121 84.951L254.135 84.4512L252.133 84.3964L252.119 84.8963L250.117 84.8415L250.131 84.3417L248.128 84.2869L248.115 84.7867L246.113 84.732L246.126 84.2322L244.124 84.1774L244.111 84.6772L242.109 84.6224L242.122 84.1226L240.12 84.0679L240.107 84.5677L238.104 84.5129L238.118 84.0131L236.116 83.9583L236.102 84.4582L234.1 84.4034L234.114 83.9036L232.112 83.8488L232.098 84.3486L230.096 84.2939L230.11 83.794L228.108 83.7393L228.094 84.2391L226.092 84.1843L226.106 83.6845L224.104 83.6298L224.09 84.1296L222.088 84.0748L222.102 83.575L220.099 83.5202L220.086 84.02L218.084 83.9653L218.097 83.4655L216.095 83.4107L216.082 83.9105L214.08 83.8558L214.093 83.3559L212.091 83.3012L212.077 83.801L210.075 83.7462L210.089 83.2464L208.087 83.1917L208.073 83.6915L206.071 83.6367L206.085 83.1369L204.083 83.0821L204.069 83.5819L202.067 83.5272L202.081 83.0274L200.079 82.9726L200.065 83.4724L198.063 83.4176L198.077 82.9178L196.075 82.8631L196.061 83.3629L194.059 83.3081L194.072 82.8083L192.07 82.7535L192.057 83.2534L190.055 83.1986L190.068 82.6988L188.066 82.644L188.053 83.1438L186.051 83.0891L186.064 82.5893L184.062 82.5345L184.048 83.0343L182.046 82.9795L182.06 82.4797L180.058 82.425L180.044 82.9248L178.042 82.87L178.056 82.3702L176.054 82.3154L176.04 82.8153L174.038 82.7605L174.052 82.2607L172.05 82.2059L172.036 82.7057L170.034 82.651L170.048 82.1512L168.046 82.0964L168.032 82.5962L166.03 82.5414L166.043 82.0416L164.041 81.9869L164.028 82.4867L162.026 82.4319L162.039 81.9321L160.037 81.8773L160.024 82.3772L158.021 82.3224L158.035 81.8226L156.033 81.7678L156.019 82.2676L154.017 82.2129L154.031 81.7131L152.029 81.6583L152.015 82.1581L150.013 82.1033L150.027 81.6035L148.025 81.5488L148.011 82.0486L146.009 81.9938L146.023 81.494L144.021 81.4392L144.007 81.939L142.005 81.8843L142.019 81.3845L140.016 81.3297L140.003 81.8295L138.001 81.7748L138.014 81.2749L136.012 81.2202L135.999 81.72L133.997 81.6652L134.01 81.1654L132.008 81.1107L131.995 81.6105L129.992 81.5557L130.006 81.0559L128.004 81.0011L127.99 81.5009L125.988 81.4462L126.002 80.9464L124 80.8916L123.986 81.3914L121.984 81.3367L121.998 80.8368L119.996 80.7821L119.982 81.2819L117.98 81.2271L117.994 80.7273L115.992 80.6726L115.978 81.1724L113.976 81.1176L113.99 80.6178L111.988 80.563L111.974 81.0628L109.972 81.0081L109.985 80.5083L107.983 80.4535L107.97 80.9533L105.968 80.8986L105.981 80.3987L103.979 80.344L103.966 80.8438L101.964 80.789L101.977 80.2892L99.9751 80.2345L99.9614 80.7343L97.9594 80.6795L97.9731 80.1797L95.971 80.1249L95.9573 80.6247L93.9552 80.57L93.9689 80.0702L91.9669 80.0154L91.9532 80.5152L89.9511 80.4604L89.9648 79.9606L87.9627 79.9059L87.9491 80.4057L85.947 80.3509L85.9607 79.8511L83.9586 79.7963L83.9449 80.2962L81.9428 80.2414L81.9565 79.7416L79.9545 79.6868L79.9408 80.1866L77.9387 80.1319L77.9524 79.6321L75.9503 79.5773L75.9367 80.0771L73.9346 80.0223L73.9483 79.5225L71.9462 79.4678L71.9325 79.9676L69.9305 79.9128L69.9441 79.413L67.9421 79.3582L67.9284 79.8581L65.9263 79.8033L65.94 79.3035L63.9379 79.2487L63.9242 79.7485L61.9222 79.6938L61.9359 79.194L59.9338 79.1392L59.9201 79.639L57.918 79.5842L57.9317 79.0844L55.9297 79.0297L55.916 79.5295L53.9139 79.4747L53.9276 78.9749L51.9255 78.9201L51.9118 79.42L49.9098 79.3652L49.9235 78.8654L47.9214 78.8106L47.9077 79.3104L45.9057 79.2557L45.9193 78.7559L43.9173 78.7011L43.9036 79.2009L41.9015 79.1461L41.9152 78.6463L39.9131 78.5916L39.8995 79.0914L37.8974 79.0366L37.9111 78.5368L35.909 78.482L35.8953 78.9818L33.8933 78.9271L33.9069 78.4273L31.9049 78.3725L31.8912 78.8723L29.8891 78.8176L29.9028 78.3177L27.9007 78.263L27.8871 78.7628L25.885 78.708L25.8987 78.2082L23.8966 78.1535L23.8829 78.6533L21.8809 78.5985L21.8945 78.0987L19.8925 78.0439L19.8788 78.5437L17.8767 78.489L17.8904 77.9892L15.8883 77.9344L15.8747 78.4342L13.8726 78.3795L13.8863 77.8796L11.8842 77.8249L11.8705 78.3247L9.86845 78.2699L9.88212 77.7701L7.88006 77.7154L7.86639 78.2152L5.86432 78.1604L5.87799 77.6606L4.87696 77.6332C4.58141 77.6251 4.29359 77.5888 4.01594 77.5269L3.90715 78.0149C3.26631 77.872 2.67253 77.6065 2.15129 77.2446L2.43648 76.8339C1.95969 76.5028 1.55022 76.082 1.23229 75.5963L0.813952 75.8702Z" fill="#5CD5FF" fill-opacity="0.31" stroke="#79A6FF" stroke-linejoin="round" stroke-dasharray="2 2"/>
</svg>
