<svg width="24" height="24" viewBox="0 0 24 24" fill="none" xmlns="http://www.w3.org/2000/svg">
<path d="M0.499141 23.0695C0.0925541 22.6629 0.0925555 22.0029 0.499142 21.5963L19.6181 2.47735L4.63218 2.60227C4.49301 2.60738 4.35422 2.58453 4.22403 2.53507C4.09385 2.48562 3.9749 2.41055 3.87422 2.31433C3.77354 2.2181 3.69319 2.10266 3.6379 1.97484C3.58261 1.84702 3.55352 1.70941 3.55233 1.57015C3.55115 1.43089 3.57791 1.2928 3.63102 1.16406C3.68413 1.03532 3.76251 0.918533 3.86154 0.820612C3.96057 0.72269 4.07823 0.64562 4.20756 0.59396C4.33689 0.542299 4.47526 0.517096 4.6145 0.519842L22.1313 0.373119L22.1625 0.372529C22.3166 0.373478 22.4685 0.408714 22.6072 0.475678C22.7459 0.542642 22.868 0.639653 22.9645 0.75967C23.1232 0.955329 23.2053 1.20206 23.1955 1.45381L23.0482 18.9535C23.0509 19.0928 23.0257 19.2311 22.9741 19.3605C22.9224 19.4898 22.8453 19.6075 22.7474 19.7065C22.6495 19.8055 22.5327 19.8839 22.404 19.937C22.2752 19.9901 22.1371 20.0169 21.9979 20.0157C21.8586 20.0145 21.721 19.9854 21.5932 19.9301C21.4654 19.8748 21.3499 19.7945 21.2537 19.6938C21.1575 19.5931 21.0824 19.4742 21.033 19.344C20.9835 19.2138 20.9607 19.075 20.9658 18.9358L21.0907 3.9499L1.97169 23.0689C1.5651 23.4755 0.906317 23.4767 0.499141 23.0695Z" fill="#fd6366"/>
</svg>
